<svg id="Layer_1" data-name="Layer 1" xmlns="http://www.w3.org/2000/svg" viewBox="0 0 122.07 136.51"><defs><style>.cls-1{fill:#00529c;}</style></defs><path class="cls-1" d="M108.08,1005.45a104.11,104.11,0,0,0-47.92-3.62V924.52c20.12-6.33,37.75,1.58,37.75,1.58v76.41c25.09-15.6,57.19-1.58,57.19-1.58V898.52s-27.8-13.11-57.19.23v13.79c15.6-8.37,32.33-6.78,43.63-4.3V984c-9.72-1.81-24-2.94-37.75,1.81V922c2.48-.9,5.88-2.26,9.27-3.16,2-.68,8.59-2.49,8.81,4.52v9.72c-.22,1.13-.45,2-1.58,2.49a15.18,15.18,0,0,1-3.84,1.13v6.1s.22,0,2.94-.45c1.8-.23,2.48.9,2.48,2.94V958.2a5.43,5.43,0,0,1-.9,2.94c-.91,1.13-4.52,1.36-4.52,1.36v5.88a29.07,29.07,0,0,0,6.33-1.36,7.21,7.21,0,0,0,4.07-3.62c1.13-2.94.9-14.92.45-20.34a4.57,4.57,0,0,0-3.39-4.3s3.61-1.81,3.61-5.65v-12c0-8.14-7.23-10.62-14.46-8.59a117.87,117.87,0,0,0-15.15,5.2v-5.2s-24.19-10.4-51.31,3.84v102.41c31.19-10.63,58.54.22,58.54.22,40.92,16.5,63.53,8.14,63.53,8.14v-19.89S149.9,1019.46,108.08,1005.45Z" transform="translate(-46.6 -892.76)"/><path class="cls-1" d="M114,972.67V922.94a21.57,21.57,0,0,0-5.65,1.81v54.93a20.51,20.51,0,0,1,4.75-1.13,79.21,79.21,0,0,1,24-.45V911.86a18.31,18.31,0,0,0-5.88-.68V972A95.67,95.67,0,0,0,114,972.67Z" transform="translate(-46.6 -892.76)"/></svg>